<?xml version="1.0" encoding="UTF-8"?>
<!DOCTYPE svg PUBLIC "-//W3C//DTD SVG 1.1//EN" "http://www.w3.org/Graphics/SVG/1.1/DTD/svg11.dtd">
<!-- Creator: CorelDRAW -->
<svg xmlns="http://www.w3.org/2000/svg" xml:space="preserve" width="3.92769in" height="2.10629in" version="1.1" style="shape-rendering:geometricPrecision; text-rendering:geometricPrecision; image-rendering:optimizeQuality; fill-rule:evenodd; clip-rule:evenodd"
viewBox="0 0 2555.09 1370.21"
 xmlns:xlink="http://www.w3.org/1999/xlink"
 xmlns:xodm="http://www.corel.com/coreldraw/odm/2003">
 <defs>
  <style type="text/css">
   <![CDATA[
    .str0 {stroke:#F6CA7E;stroke-width:1.95;stroke-miterlimit:22.9256}
    .fil9 {fill:none;fill-rule:nonzero}
    .fil8 {fill:white}
    .fil11 {fill:white;fill-rule:nonzero}
    .fil13 {fill:#FFF215;fill-rule:nonzero}
    .fil10 {fill:#FFF215;fill-rule:nonzero}
    .fil2 {fill:#374592;fill-rule:nonzero}
    .fil0 {fill:#00076B;fill-rule:nonzero}
    .fil1 {fill:#F6CA7E;fill-rule:nonzero}
    .fil3 {fill:#FFAA00;fill-rule:nonzero}
    .fil5 {fill:url(#id8)}
    .fil6 {fill:url(#id9)}
    .fil4 {fill:url(#id10)}
    .fil12 {fill:url(#id11);fill-rule:nonzero}
    .fil7 {fill:url(#id12);fill-rule:nonzero}
   ]]>
  </style>
    <clipPath id="id0" style="clip-rule:nonzero">
     <path d="M9.58 1257.18c57.82,-20.85 115.89,-40.78 173.96,-59.5 0,-50.06 0,-100.05 0,-150.12 0,-50.06 0,-100.21 0,-150.27 31.45,46.57 62.9,91.15 94.84,133 30.95,40.55 63.4,78.29 95.1,114.74 64.66,-14.99 129.59,-28.76 194.5,-41.24 -36.26,-37.81 -73.03,-77.18 -108.54,-119.15 -36.52,-43.17 -72.28,-89.48 -108.29,-137.79 33.98,-45.12 67.48,-88.44 101.94,-129.04 33.49,-39.45 67.97,-76.62 101.95,-112.53 -58.83,-7.61 -117.42,-16.05 -176,-25.11 -32.71,38.96 -65.97,79.33 -97.89,122.42 -33.01,44.56 -65.17,92.37 -97.63,142.13 0,-50.07 0,-100.21 0,-150.19 0,-50.07 0,-100.21 0,-150.35 -58.07,-12.55 -116.14,-25.94 -173.96,-40.02 0,125.54 0,251.08 0,376.55 0,125.46 0,251 0,376.47zm768.9 -412.31c0,-21.91 0,-43.9 0,-65.81 0,-21.92 0,-43.9 0,-65.89 22.57,0.99 45.14,1.75 67.71,2.59 56.3,1.83 82.42,18.26 82.42,65.13 0,41.85 -22.32,62.16 -86.22,63 -21.3,0.3 -42.6,0.61 -63.91,0.99zm-174.22 252.76c58.07,-9.36 116.15,-17.88 174.22,-25.03 0,-24.57 0,-49.23 0,-73.8 0,-24.58 0,-49.15 0,-73.8 29.67,-1.6 59.34,-2.89 89.01,-4.26 78.11,-2.97 138.33,-16.89 179.29,-40.93 40.69,-23.89 62.38,-58.36 62.38,-103.93 0,-42.23 -20.47,-75.16 -61.11,-98.61 -41.01,-23.65 -102.45,-38.73 -185.38,-43.45 -86.22,-6.24 -172.45,-13.85 -258.41,-22.83 0,81.18 0,162.29 0,243.4 0,81.03 0,162.14 0,243.25zm746.83 -335.77c1.27,0 2.54,0 3.8,0 10.9,22.06 21.81,44.13 32.71,66.27 10.9,22.14 21.81,44.36 32.97,66.65 -45.14,-0.38 -90.28,-0.61 -135.17,-0.76 10.9,-21.91 21.8,-43.99 32.71,-66.04 10.89,-22 21.81,-44.05 32.97,-66.12zm-295.43 287.83c52.49,-2.21 104.98,-3.65 157.48,-4.79 12.93,-26.25 25.87,-52.73 38.8,-79.05 67.96,0 135.93,0.69 203.89,2.13 13.69,27.09 27.64,54.25 41.59,81.56 59.09,3.27 118.43,7.31 177.77,12.18 -36.01,-73.27 -72.01,-145.01 -108.03,-214.71 -35.49,-68.69 -72.02,-136.12 -107.78,-202.92 -62.13,1.29 -124.26,2.05 -186.14,2.44 -36.26,66.27 -72.65,132.55 -108.79,199.19 -36.39,67.11 -72.53,135.13 -108.79,203.99zm767.88 33.25c68.98,10.04 120.59,3.64 154.18,-17.57 33.87,-21.39 50.72,-57.67 50.72,-103.25 0,-59.95 0,-119.91 0,-179.87 0,-59.96 0,-119.99 0,-179.94 -58.58,7.23 -116.91,13.85 -175.23,19.48 0,51.36 0,102.79 0,154.15 0,51.36 0,102.72 0,154.07 0,41.92 -35.25,55.16 -89.77,50.83 -29.67,-2.21 -58.33,-8.6 -76.84,-14.3 0,27.08 0,54.02 0,81.03 29.67,14.38 68.47,26.86 136.94,35.38zm283.77 44.97c146.07,35.53 292.14,78.52 438.21,129.27 0,-50.37 0,-100.81 0,-151.26 -88.76,-21.08 -177.52,-40.25 -266.02,-57.6 0,-42.84 0,-85.67 0,-128.58 66.95,6.16 133.9,12.7 201.1,19.78 0,-46.72 0,-93.51 0,-140.23 -67.2,0.38 -134.15,0.76 -201.1,0.99 0,-38.65 0,-77.23 0,-115.88 85.71,-8.37 171.68,-17.65 257.65,-27.92 0,-50.07 0,-100.21 0,-150.35 -143.28,33.25 -286.56,61.25 -429.84,84.45 0,89.63 0,179.18 0,268.73 0,89.48 0,179.03 0,268.58z"/>
    </clipPath>
      <mask id="id1">
  <linearGradient id="id2" gradientUnits="userSpaceOnUse" x1="-531.36" y1="702.22" x2="1170.3" y2="707.03">
   <stop offset="0" style="stop-opacity:1; stop-color:white"/>
   <stop offset="0.270588" style="stop-opacity:0.501961; stop-color:white"/>
   <stop offset="1" style="stop-opacity:0; stop-color:white"/>
  </linearGradient>
       <rect style="fill:url(#id2)" x="588.95" y="30.68" width="1584.27" height="1462.38"/>
      </mask>
      <mask id="id3">
  <linearGradient id="id4" gradientUnits="userSpaceOnUse" x1="934.53" y1="1279.23" x2="2300.2" y2="1275.37">
   <stop offset="0" style="stop-opacity:1; stop-color:white"/>
   <stop offset="1" style="stop-opacity:0; stop-color:white"/>
  </linearGradient>
       <rect style="fill:url(#id4)" x="1833.19" y="644.1" width="1272.35" height="1174.52"/>
      </mask>
    <clipPath id="id5" style="clip-rule:nonzero">
     <path d="M403.05 530.75l87.56 0 47.93 -190.79 1.38 0 46.09 190.79 87.1 0 74.2 -309.69 -75.58 0 -43.32 194.94 -1.38 0 -48.85 -194.94 -70.05 0 -49.31 194.94 -1.84 0 -40.56 -194.94 -87.1 0 73.74 309.69zm347.35 0l217.98 0 0 -62.21 -132.26 0 0 -65.44 100 0 0 -60.83 -100 0 0 -58.99 128.12 0 0 -62.22 -213.84 0 0 309.69zm231.68 0l217.98 0 0 -62.21 -132.27 0 0 -65.44 100.01 0 0 -60.83 -100.01 0 0 -58.99 128.12 0 0 -62.22 -213.83 0 0 309.69zm231.68 0l86.64 0 0 -142.4 94.47 142.4 96.78 0 -107.84 -163.6 101.39 -146.09 -87.56 0 -97.24 142.4 0 -142.4 -86.64 0 0 309.69zm276.84 0l217.98 0 0 -62.21 -132.26 0 0 -65.44 100.01 0 0 -60.83 -100.01 0 0 -58.99 128.11 0 0 -62.22 -213.83 0 0 309.69zm231.68 0l73.74 0 0 -193.1 1.84 0 110.6 193.1 82.49 0 0 -309.69 -73.74 0 0 173.28 -1.38 0 -100 -173.28 -93.55 0 0 309.69zm377.77 -61.29l0 -187.11 28.57 0c42.4,0 66.83,18.9 66.83,84.8l0 15.67c0,64.98 -21.2,86.64 -64.52,86.64l-30.87 0zm-86.64 61.29l119.36 0c96.32,0 153.93,-47 153.93,-151.62l0 -10.6c0,-106.46 -57.61,-147.47 -154.39,-147.47l-118.9 0 0 309.69z"/>
    </clipPath>
      <mask id="id6">
  <linearGradient id="id7" gradientUnits="userSpaceOnUse" x1="-1127.94" y1="707.04" x2="1170.3" y2="707.03">
   <stop offset="0" style="stop-opacity:1; stop-color:white"/>
   <stop offset="0.0784314" style="stop-opacity:0.501961; stop-color:white"/>
   <stop offset="1" style="stop-opacity:0; stop-color:white"/>
  </linearGradient>
       <rect style="fill:url(#id7)" x="588.95" y="30.68" width="1584.27" height="1462.38"/>
      </mask>
  <linearGradient id="id8" gradientUnits="userSpaceOnUse" x1="461.98" y1="954.14" x2="461.98" y2="1095.67">
   <stop offset="0" style="stop-opacity:1; stop-color:#3D0000"/>
   <stop offset="0.282353" style="stop-opacity:1; stop-color:#580101"/>
   <stop offset="0.490196" style="stop-opacity:1; stop-color:#730202"/>
   <stop offset="0.627451" style="stop-opacity:1; stop-color:#580101"/>
   <stop offset="1" style="stop-opacity:1; stop-color:#3D0000"/>
  </linearGradient>
  <linearGradient id="id9" gradientUnits="userSpaceOnUse" xlink:href="#id8" x1="1063.02" y1="673.85" x2="1063.02" y2="1158.89">
  </linearGradient>
  <linearGradient id="id10" gradientUnits="userSpaceOnUse" x1="1218.2" y1="510.71" x2="1218.2" y2="661.45">
   <stop offset="0" style="stop-opacity:1; stop-color:#1C0000"/>
   <stop offset="0.74902" style="stop-opacity:1; stop-color:#3C0000"/>
   <stop offset="0.858824" style="stop-opacity:1; stop-color:#5C0000"/>
   <stop offset="0.882353" style="stop-opacity:1; stop-color:#4D0000"/>
   <stop offset="1" style="stop-opacity:1; stop-color:#3D0000"/>
  </linearGradient>
  <linearGradient id="id11" gradientUnits="userSpaceOnUse" x1="1325" y1="553.19" x2="1323.64" y2="183.36">
   <stop offset="0" style="stop-opacity:1; stop-color:#FFAA00"/>
   <stop offset="0.258824" style="stop-opacity:1; stop-color:#FFB525"/>
   <stop offset="0.380392" style="stop-opacity:1; stop-color:#FFC04A"/>
   <stop offset="1" style="stop-opacity:1; stop-color:#430705"/>
  </linearGradient>
  <linearGradient id="id12" gradientUnits="userSpaceOnUse" xlink:href="#id11" x1="1298.66" y1="1123.74" x2="1301.01" y2="276.54">
  </linearGradient>
 </defs>
 <g id="Layer_x0020_1">
  <metadata id="CorelCorpID_0Corel-Layer"/>
  <g id="_105553241277568">
   <path class="fil0" d="M2188.96 685.11l-286.82 673.92 -1318.93 0 -297.17 -673.92 347.02 -673.92c388.41,0 776.82,0 1165.23,0l390.66 673.92z"/>
   <path class="fil1" d="M2199.19 689.57l-286.78 673.83c-1.81,4.24 -5.93,6.79 -10.27,6.79l-1318.93 0.03c-4.79,0 -8.88,-3.01 -10.47,-7.24l-296.93 -673.36c-1.49,-3.37 -1.17,-7.08 0.53,-10.06l346.8 -673.47c1.98,-3.84 5.88,-6.05 9.92,-6.05l1165.23 -0.03c4.41,0 8.23,2.56 10.05,6.26l390.28 673.25c1.85,3.19 1.94,6.92 0.57,10.06zm-304.42 658.26l281.73 -661.96 -384.62 -663.49 -1152.02 0 -341.45 663.08 292.08 662.37 1304.28 0z"/>
   <path class="fil2" d="M2099.62 685.11l-259.89 610.64 -1195.09 0 -269.27 -610.64 314.44 -610.64c351.94,0 703.88,0 1055.82,0l353.98 610.64z"/>
   <path class="fil3" d="M2109.85 689.57l-259.85 610.55c-1.81,4.24 -5.93,6.79 -10.27,6.79l-1195.09 0.03c-4.79,0 -8.88,-3.01 -10.47,-7.24l-269.02 -610.08c-1.49,-3.37 -1.17,-7.08 0.53,-10.06l314.22 -610.2c1.98,-3.84 5.88,-6.04 9.92,-6.05l1055.82 -0.03c4.41,0 8.23,2.56 10.05,6.26l353.59 609.97c1.85,3.19 1.94,6.92 0.57,10.06zm-277.49 594.99l254.8 -598.68 -347.94 -600.22 -1042.61 0 -308.87 599.81 264.18 599.09 1180.44 0z"/>
   <polygon class="fil4" points="1243.51,694.49 1243.51,661.88 1250.91,694.49 1297.69,694.49 1298.94,619.48 1348.71,694.49 1400.4,694.49 1400.97,694.49 1518.11,694.49 1525.51,688.14 1525.51,694.49 1565.33,694.49 1608.5,663.85 1626.05,694.49 1670.59,694.49 1682.72,688.29 1682.72,694.49 1747.17,694.49 1751.99,694.43 1756.67,694.19 1761.23,693.82 1765.68,693.29 1769.99,692.61 1774.16,691.78 1778.2,690.79 1782.1,689.65 1785.87,688.34 1789.5,686.88 2211.16,516.66 2204.44,519.36 2197.45,521.77 2190.23,523.9 2182.74,525.72 2175.01,527.26 2167.04,528.53 2158.82,529.5 2150.38,530.2 2141.69,530.62 2132.77,530.75 2024.95,530.75 2162.25,463.84 2165.1,462.45 2167.8,460.9 2170.38,459.18 2172.84,457.28 2175.16,455.21 2177.36,452.95 2179.43,450.51 2181.38,447.87 2183.2,445.04 2184.9,442.02 2186.46,438.79 2187.9,435.35 2189.21,431.7 2190.4,427.84 2191.46,423.77 2192.4,419.47 2193.21,414.94 2193.9,410.19 2194.45,405.2 2194.89,399.97 2195.2,394.51 2195.39,388.79 2195.45,382.82 2195.45,367.15 2195.38,361.1 2195.17,355.34 2194.81,349.84 2194.32,344.58 2193.68,339.59 2192.92,334.86 2192.01,330.36 2190.97,326.1 2189.8,322.08 2188.49,318.28 2187.06,314.71 2185.49,311.36 2183.79,308.22 2181.96,305.3 2180.02,302.57 2177.93,300.04 2175.74,297.7 2173.41,295.56 2170.97,293.59 2168.4,291.8 2165.72,290.19 2162.91,288.75 2159.99,287.46 2156.95,286.34 2153.8,285.36 2150.54,284.53 2147.16,283.84 2143.67,283.29 2140.07,282.87 2136.36,282.58 2132.55,282.41 2128.62,282.35 2100.06,282.35 2013.42,347.35 2013.42,221.06 1917.23,310.12 1917.23,221.06 1801.77,344.47 1797.87,337.66 1796.02,337.66 1722.29,418.38 1722.29,221.06 1682.3,283.28 1576.32,283.28 1490.61,466.82 1490.61,221.06 1400.4,527.26 1400.4,530.75 1395.06,530.75 1397.48,527.26 1485.2,221.06 1383.82,367.15 1363.76,483.84 1300.41,388.35 1298.72,530.75 1241.27,530.75 1241.27,527.26 1195.92,221.06 1195.92,283.28 1067.8,283.28 1067.8,342.26 1093.14,403.1 1067.8,403.1 1067.8,429.79 964.24,221.06 964.24,283.28 836.12,283.28 836.12,329.1 747.31,221.06 716.51,349.61 578.18,221.06 616.11,372.44 416.42,221.06 456.97,416 511.71,446.77 490.61,530.75 403.05,530.75 813.12,694.49 860.41,694.49 866.18,671.52 911.92,694.49 958.95,694.49 964.61,670.89 1000.69,694.49 1118.41,694.49 1118.41,686.07 1125.8,694.49 "/>
   <path class="fil5" d="M397.48 1112.18l0 -3.75 0 -3.75 0 -3.75 0 -3.75 0 -3.75 0 -3.75 0 -3.75 0 -3.75 0 -3.75 0 -3.75 0 -3.75 0 -3.75 0 -3.75 0 -3.75 0 -3.75 0 -3.75 0 -3.75 0 -3.75 0 -3.75 0 -3.75 0 -3.75 0 -3.75 0 -3.76 0 -3.75 0 -3.76 0 -3.75 0 -3.76 0 -3.75 0 -3.76 0 -3.75 0 -3.75 0 -3.76 0 -3.75 0 -3.76 0 -3.75 0 -3.76 0 -3.76 0 -3.76 0 -3.75 0 -3.76 0 -3.75 0 -3.76 0 -3.76 0 -3.75 0 -3.75 0 -3.76 0 -3.75 0 -3.76 0 -3.75 0 -3.75 5.2 -9.86 -2.76 11.15 3.37 4.31 3.38 4.29 3.38 4.28 3.38 4.26 3.38 4.24 3.39 4.23 3.39 4.21 3.39 4.2 3.4 4.18 3.39 4.16 3.4 4.15 3.41 4.13 3.4 4.11 3.41 4.09 3.42 4.07 3.42 4.05 3.33 3.93 3.34 3.92 3.35 3.89 3.35 3.88 3.36 3.87 3.37 3.85 3.37 3.84 3.38 3.83 3.38 3.81 3.38 3.8 3.39 3.79 3.39 3.77 3.39 3.76 3.4 3.74 3.4 3.73 3.4 3.72 3.4 3.71 3.41 3.69 3.41 3.69 3.41 3.67 3.41 3.67 3.41 3.65 3.41 3.64 3.41 3.62 3.41 3.62 3.41 3.6 3.41 3.6 3.41 3.59 3.41 3.58 3.41 3.56c5.77,6.04 -44.42,13.72 -90.54,17.82 -29.24,2.61 -55.64,10.29 -68.98,-5.58 -5.45,-6.49 1.01,7.79 1.01,-4.77z"/>
   <path class="fil6" d="M1415.3 974.25l1.03 2.03 1.03 2.03 1.03 2.04 1.03 2.03 1.03 2.03 1.03 2.04 1.03 2.03 1.04 2.04 1.03 2.04 1.03 2.03 1.04 2.03 1.03 2.04 1.04 2.03 1.04 2.04 1.04 2.03 1.04 2.04 1.04 2.04 1.04 2.04 1.04 2.04 1.05 2.04 1.04 2.04 1.04 2.04 1.04 2.05 1.04 2.04 1.04 2.04 1.05 2.04 1.04 2.05 1.04 2.05 1.04 2.04 1.04 2.04 1.05 2.05 1.04 2.04 46.09 15.13 -1.31 -2.56 -1.3 -2.56 -1.31 -2.56 -1.31 -2.56 -1.31 -2.55 -1.31 -2.56 -1.31 -2.56 -1.3 -2.55 -1.31 -2.55 -1.3 -2.56 -1.31 -2.55 -1.3 -2.55 -1.3 -2.55 -1.31 -2.55 -1.3 -2.55 -1.3 -2.55 -1.3 -2.55 -1.3 -2.54 -1.3 -2.55 -1.3 -2.54 -1.3 -2.55 -1.3 -2.55 -1.3 -2.54 -1.29 -2.54 -1.29 -2.55 -1.29 -2.54 -1.29 -2.54 -1.29 -2.54 -1.29 -2.55 -1.29 -2.54 -1.28 -2.54 -1.29 -2.54 -8.82 -0.13 -6.37 -0.13 -6.38 -0.12 -6.37 -0.13 -6.37 -0.11 -6.37 -0.11 -6.37 -0.11 -6.37 -0.1 -6.37 -0.1 -6.37 -0.1 -6.37 -0.09 -6.37 -0.09 -6.37 -0.08 -6.37 -0.08 -6.37 -0.07 -6.37 -0.07 -6.37 -0.07 -6.37 -0.06 -6.37 -0.06 -6.37 -0.05 -6.37 -0.05 -6.37 -0.04 -6.37 -0.04 -6.37 -0.04 -6.37 -0.03 -6.37 -0.03 -6.37 -0.02 -6.37 -0.02 -6.37 -0.02 -6.37 -0.01 -6.37 -0.01 -6.37 0 -1.21 2.47 -1.21 2.47 -1.21 2.47 -1.22 2.47 -1.21 2.47 -1.22 2.47 -1.21 2.47 -1.22 2.47 -1.21 2.47 -1.22 2.48 -1.21 2.47 -1.21 2.48 -1.21 2.47 -1.21 2.47 -1.21 2.47 -1.21 2.48 -1.21 2.47 -1.22 2.47 -1.22 2.47 -1.21 2.47 -1.21 2.47 -1.21 2.47 -1.21 2.47 -1.21 2.47 -1.21 2.47 -1.21 2.47 -1.21 2.47 -1.21 2.47 -1.22 2.47 -1.21 2.46 -1.22 2.46 -1.21 2.46 13.22 -14.19 0.97 -1.97 0.97 -1.97 0.97 -1.97 0.97 -1.97 0.97 -1.98 0.97 -1.97 0.97 -1.97 0.97 -1.98 0.97 -1.97 0.97 -1.98 0.97 -1.98 0.97 -1.98 0.97 -1.98 0.97 -1.98 0.97 -1.98 0.97 -1.98 0.97 -1.98 0.97 -1.98 0.97 -1.98 0.97 -1.98 0.97 -1.98 0.97 -1.98 0.97 -1.98 0.97 -1.98 0.97 -1.98 0.97 -1.98 0.97 -1.98 0.97 -1.97 0.97 -1.98 0.97 -1.98 0.97 -1.98 0.97 -1.97 5.09 0.01 5.1 0 5.1 0.01 5.09 0.01 5.1 0.02 5.1 0.02 5.1 0.02 5.1 0.03 5.09 0.03 5.1 0.03 5.1 0.04 5.1 0.04 5.09 0.04 5.1 0.04 5.1 0.05 5.1 0.05 5.1 0.06 5.09 0.06 5.1 0.06 5.1 0.07 5.1 0.07 5.09 0.07 5.1 0.07 5.1 0.08 5.1 0.08 5.1 0.09 5.09 0.09 5.1 0.09 5.1 0.1 5.1 0.1 5.09 0.11 5.1 0.11zm-1410.92 290.97l253.93 -56.65 4.34 -1.56 4.34 -1.56 4.34 -1.55 4.34 -1.55 4.34 -1.54 4.34 -1.54 4.34 -1.53 4.35 -1.53 4.35 -1.53 4.35 -1.52 4.35 -1.52 4.35 -1.51 4.35 -1.51 4.35 -1.5 4.35 -1.5 4.35 -1.49 4.35 -1.49 4.35 -1.48 4.35 -1.48 4.36 -1.48 4.35 -1.46 4.35 -1.46 4.35 -1.46 4.36 -1.45 4.36 -1.45 4.35 -1.44 4.36 -1.44 4.35 -1.43 4.36 -1.42 4.36 -1.42 4.36 -1.42 4.35 -1.4 0 -3.75 0 -3.75 0 -3.75 156.81 -31.98 4.85 -1.11 4.86 -1.11 4.86 -1.1 4.85 -1.1 4.86 -1.09 4.86 -1.09 4.86 -1.08 4.86 -1.07 4.86 -1.07 4.86 -1.07 4.86 -1.06 4.86 -1.05 4.86 -1.05 4.86 -1.03 4.87 -1.03 4.86 -1.03 4.87 -1.02c48.84,-10.2 82.1,-14.21 136.38,-18.91l100.15 -19.73 0 -1.84 0 -1.84 0 -1.84 0 -1.84 0 -1.84 0 -1.85 0 -1.84 0 -1.84 0 -1.84 0 -1.85 0 -1.84 0 -1.85 0 -1.84 0 -1.85 0 -1.84 0 -1.85 0 -1.84 0 -1.85 0 -1.84 0 -1.84 0 -1.85 0 -1.84 0 -1.84 0 -1.85 0 -1.84 0 -1.85 0 -1.84 0 -1.84 0 -1.84 0 -1.84 0 -1.84 0 -1.84 0 -1.84 0 -1.84 0 -1.84 0 -1.84 0 -1.84 0 -1.84 0 -1.84 0 -1.85 0 -1.84 0 -1.85 0 -1.84 0 -1.84 0 -1.84 0 -1.84 0 -1.84 0 -1.84 0 -1.84 0 -1.85 0 -1.84 0 -1.84 0 -1.84 0 -1.85 0 -1.84 0 -1.85 0 -1.84 0 -1.85 0 -1.85 0 -1.85 0 -1.84 0 -1.85 0 -1.85 0 -1.85 2.23 -0.12 2.23 -0.12 2.22 -0.12 2.23 -0.11 2.23 -0.11 2.22 -0.11 2.23 -0.11 2.23 -0.11 2.22 -0.11 2.23 -0.11 2.23 -0.1 2.22 -0.11 2.23 -0.11 2.22 -0.1 2.23 -0.11 2.23 -0.1 2.22 -0.11 2.23 -0.1 2.23 -0.1 2.22 -0.1 2.23 -0.11 2.23 -0.1 2.22 -0.1 2.23 -0.1 2.23 -0.1 2.22 -0.11 2.23 -0.1 2.22 -0.1 2.23 -0.1 2.23 -0.1 2.22 -0.11 2.23 -0.1 5.81 -0.25 5.73 -0.3 5.65 -0.35 5.56 -0.4 5.48 -0.45 5.39 -0.5 5.31 -0.55 5.23 -0.61 5.14 -0.65 5.05 -0.71 4.96 -0.75 4.88 -0.81 4.79 -0.86 4.71 -0.9 4.62 -0.95 4.54 -1 4.44 -1.06 4.36 -1.1 4.27 -1.16 4.18 -1.2 4.1 -1.25 4.01 -1.29 3.92 -1.35 3.83 -1.4 3.75 -1.45 3.65 -1.49 3.57 -1.54 3.47 -1.59 3.39 -1.64 3.3 -1.69 3.2 -1.73 3.12 -1.78 3.01 -1.82 2.91 -1.86 2.83 -1.92 2.74 -1.96 2.65 -2.02 2.55 -2.07 2.47 -2.12 2.37 -2.16 2.28 -2.22 2.19 -2.26 2.09 -2.32 2 -2.36 1.91 -2.42 1.82 -2.47 1.72 -2.52 1.63 -2.57 1.53 -2.62 1.43 -2.67 1.34 -2.73 1.24 -2.78 1.14 -2.82 1.04 -2.87 0.95 -2.93 0.85 -2.98 0.75 -3.03 0.66 -3.08 0.55 -3.13 0.45 -3.19 0.36 -3.23 0.25 -3.29 0.15 -3.34 0.05 -3.39 -0.05 -3.15 -0.14 -3.1 -0.24 -3.06 -0.33 -3.01 -0.43 -2.97 -0.53 -2.93 -0.62 -2.88 -0.72 -2.84 -0.81 -2.79 -0.91 -2.75 -1.01 -2.71 -1.1 -2.66 -1.2 -2.62 -1.29 -2.57 -1.39 -2.54 -1.48 -2.49 -1.58 -2.45 -1.67 -2.4 -37.89 -52.1 2.09 3 1.97 3.06 1.85 3.11 1.73 3.17 1.62 3.22 1.5 3.28 1.37 3.33 1.26 3.38 1.14 3.44 1.02 3.5 0.89 3.55 0.78 3.6 0.66 3.66 0.54 3.71 0.41 3.77 0.3 3.82 0.17 3.88 0.06 3.93 -0.06 4.24 -0.19 4.18 -0.32 4.11 -0.44 4.04 -0.57 3.98 -0.69 3.92 -0.81 3.85 -0.94 3.79 -1.06 3.72 -1.18 3.66 -1.31 3.6 -1.43 3.53 -1.55 3.47 -1.67 3.4 -1.79 3.34 -1.91 3.28 -2.03 3.21 -2.15 3.15 -2.27 3.09 -2.38 3.02 -2.5 2.96 -2.62 2.9 -2.74 2.83 -2.85 2.77 -2.97 2.71 -3.08 2.65 -3.2 2.58 -3.31 2.52 -3.42 2.46 -3.53 2.4 -3.65 2.33 -3.76 2.27 -3.89 2.23 -4.01 2.17 -4.13 2.1 -4.23 2.05 -4.35 1.98 -4.45 1.93 -4.57 1.86 -4.68 1.81 -4.79 1.74 -4.9 1.69 -5.01 1.62 -5.12 1.56 -5.23 1.5 -5.34 1.44 -5.45 1.38 -5.56 1.31 -5.66 1.25 -5.78 1.2 -5.89 1.13 -5.99 1.07 -6.1 1.01 -6.21 0.94 -6.31 0.88 -6.43 0.82 -6.52 0.76 -6.64 0.69 -6.74 0.63 -6.85 0.57 -6.95 0.51 -7.06 0.44 -7.17 0.37 -7.27 0.32 -2.79 0.12 -2.78 0.13 -2.78 0.13 -2.78 0.13 -2.78 0.13 -2.78 0.12 -2.78 0.13 -2.78 0.13 -2.78 0.12 -2.79 0.13 -2.78 0.13 -2.78 0.13 -2.78 0.13 -2.78 0.13 -2.78 0.13 -2.79 0.13 -2.78 0.13 -2.78 0.14 -2.78 0.13 -2.78 0.13 -2.78 0.14 -2.78 0.13 -2.78 0.13 -2.79 0.14 -2.78 0.14 -2.78 0.14 -2.78 0.14 -2.78 0.14 -2.78 0.14 -2.78 0.14 -2.78 0.15 -2.78 0.15 0 2.31 0 2.31 0 2.31 0 2.31 0 2.31 0 2.31 0 2.31 0 2.31 0 2.31 0 2.31 0 2.31 0 2.31 0 2.31 0 2.31 0 2.31 0 2.3 0 2.31 0 2.31 0 2.3 0 2.31 0 2.3 0 2.31 0 2.3 0 2.31 0 2.3 0 2.31 0 2.3 0 2.31 0 2.3 0 2.3 0 2.31 0 2.3 0 2.31 0 2.3 0 2.31 0 2.3 0 2.31 0 2.31 0 2.31 0 2.31 0 2.31 0 2.31 0 2.31 0 2.31 0 2.31 0 2.31 0 2.31 0 2.31 0 2.31 0 2.31 0 2.31 0 2.31 0 2.31 0 2.31 0 2.31 0 2.31 0 2.31 0 2.31 0 2.3 0 2.31 0 2.31 0 2.3 0 2.31 0 2.3 -70.95 2.38 -2.72 -2.84 -2.73 -2.86 -2.73 -2.86 -2.73 -2.87 -2.73 -2.88 -2.73 -2.89 -2.73 -2.89 -2.73 -2.9 -2.74 -2.91 -2.73 -2.92 -2.73 -2.93 -2.73 -2.94 -2.73 -2.95 -2.73 -2.96 -2.73 -2.97 -2.73 -2.98 -2.72 -2.98 -2.72 -3 -2.71 -3.01 -2.71 -3.02 -2.71 -3.03 -2.7 -3.04 -2.7 -3.05 -2.7 -3.06 -2.69 -3.07 -2.69 -3.09 -2.68 -3.09 -2.68 -3.11 -2.68 -3.11 -2.67 -3.13 -2.67 -3.14 -2.74 -3.24 -2.74 -3.26 -2.73 -3.28 -2.73 -3.29 -2.73 -3.3 -2.72 -3.32 -2.72 -3.33 -2.72 -3.34 -2.71 -3.36 -2.71 -3.37 -2.71 -3.38 -2.71 -3.39 -2.7 -3.41 -2.71 -3.42 -2.7 -3.43 -2.7 -3.44 -2.7 -3.46 -2.7 -3.47 -2.69 -3.48 -2.7 -3.49 -2.7 -3.5 -2.69 -3.52 -2.7 -3.53 -2.69 -3.54 -2.7 -3.55 -2.7 -3.56 -2.69 -3.57 -2.7 -3.58 -2.7 -3.59 -2.7 -3.6 -2.7 -3.61 -2.7 -3.61 2.54 -3.38 2.55 -3.37 2.54 -3.36 2.54 -3.36 2.55 -3.34 2.54 -3.34 2.53 -3.33 2.54 -3.32 2.54 -3.31 2.54 -3.3 2.53 -3.29 2.54 -3.28 2.54 -3.27 2.54 -3.26 2.53 -3.25 2.55 -3.24 2.54 -3.22 2.54 -3.22 2.55 -3.2 2.54 -3.19 2.55 -3.18 2.55 -3.17 2.55 -3.16 2.56 -3.15 2.56 -3.14 2.56 -3.12 2.56 -3.12 2.57 -3.1 2.57 -3.09 2.57 -3.07 2.58 -3.06 2.58 -3.05 2.51 -2.96 2.52 -2.94 2.52 -2.94 2.52 -2.92 2.54 -2.91 2.53 -2.9 2.53 -2.89 2.54 -2.88 2.54 -2.87 2.55 -2.86 2.55 -2.86 2.55 -2.84 2.55 -2.84 2.55 -2.82 14.36 -14.62 2.56 -2.81 2.56 -2.8 2.56 -2.8 2.56 -2.78 2.56 -2.79 2.56 -2.77 2.57 -2.76 2.56 -2.76 2.56 -2.75 2.56 -2.75 2.56 -2.73 2.56 -2.73 2.56 -2.73 2.55 -2.71 2.55 -2.71 2.56 -2.7 2.55 -2.7 -144.84 -73.73 -3.18 3.37 -14.99 15.18 -3.19 3.38 -3.2 3.39 -3.19 3.4 -3.2 3.41 -3.2 3.42 -3.2 3.42 -3.2 3.44 -3.2 3.44 -3.2 3.46 -3.2 3.47 -3.2 3.48 -3.2 3.48 -3.2 3.49 -3.2 3.51 -3.19 3.51 -3.2 3.52 -3.19 3.53 -3.19 3.55 -3.19 3.56 -3.19 3.57 -3.18 3.58 -3.18 3.59 -3.18 3.61 -3.17 3.62 -3.17 3.63 -3.16 3.64 -3.16 3.65 -3.15 3.66 -3.15 3.68 -3.14 3.69 -3.23 3.81 -3.22 3.83 -3.22 3.85 -3.21 3.86 -3.21 3.88 -3.2 3.9 -3.2 3.9 -3.2 3.92 -3.19 3.93 -3.19 3.95 -3.19 3.96 -3.18 3.98 -3.18 3.99 -3.18 4.01 -3.18 4.02 2.75 -4.92 -5.2 4.99 0 -3.75 0 -3.75 0 -3.75 0 -3.75 0 -3.75 0 -3.75 0 -3.75 0 -3.75 0 -3.75 0 -3.76 0 -3.75 0 -3.76 0 -3.75 0 -3.75 0 -3.76 0 -3.76 0 -3.75 0 -3.76 0 -3.76 0 -3.76 0 -3.76 0 -3.75 0 -3.76 0 -3.76 0 -3.76 0 -3.76 0 -3.76 0 -3.75 0 -3.76 0 -3.75 0 -3.76 0 -3.76 0 -17.81 0 -3.76 0 -3.76 0 -3.76 0 -3.76 0 -3.76 0 -3.76 -219.14 -85.95 0 4.7 0 4.7 0 4.7 0 4.7 0 4.7 0 4.7 0 4.69 0 4.7 0 4.7 0 4.7 0 4.7 0 4.7 0 4.7 0 4.7 0 4.7 0 4.7 0 4.69 0 4.7 0 4.7 0 4.7 0 4.7 0 4.69 0 4.7 0 18.75 0 4.7 0 4.7 0 4.7 0 4.7 0 4.69 0 4.7 0 4.69 0 4.7 0 4.69 0 4.68 0 4.69 0 4.69 0 4.69 0 4.69 0 4.69 0 4.69 0 4.69 0 4.69 0 4.69 0 4.69 0 4.69 0 4.7 0 4.7 0 4.69 0 4.7 0 4.7 0 4.7 0 4.7 0 4.69 0 4.69 0 4.7 0 4.7 0 4.7 0 4.69 0 4.7 0 4.69 0 4.7 0 4.69 0 4.69 0 4.69 187.32 13.44 -2.83 11.19 3.37 4.46 3.37 4.44 3.37 4.43 3.37 4.43 3.37 4.41 3.37 4.4 3.37 4.38 3.37 4.37 3.37 4.35 7.92 -4.54 -222.74 -7.18 0 4.7 0 4.69 0 4.69 0 4.69 0 4.7 0 4.7 0 4.7 0 4.69 0 4.7 0 4.7 0 4.7 0 4.7 0 4.69 0 4.7 0 4.7 0 4.7 0 4.7 0 4.69 0 4.7 0 4.7 0 4.7 0 4.7 0 4.69 0 4.7 0 4.7 0 4.7 0 4.7 0 4.69 0 4.7 0 4.7 0 4.69 0 4.7 0 4.69 0 4.69 0 4.69 0 4.7 0 4.69 0 4.69 0 4.69 0 4.69 0 4.69 0 4.69 0 4.69 0 4.69 0 4.69 0 4.69 0 4.69 0 4.69 0 4.69 0 4.69 0 4.69 0 4.68 0 4.69 0 4.69 0 4.69 0 4.69 0 4.69 0 4.7 0 4.69 0 4.69 0 4.7 0 4.69 0 4.69 0 4.69 -5.45 1.76 -5.44 1.76 -5.44 1.77 -5.45 1.78 -5.44 1.79 -5.44 1.79 -5.45 1.8 -5.44 1.81 -5.44 1.81 -5.45 1.82 -5.44 1.83 -5.45 1.83 -5.44 1.84 -5.44 1.84 -5.44 1.85 -5.44 1.86 -5.44 1.86 -5.44 1.87 -5.44 1.88 -5.43 1.89 -5.43 1.89 -5.43 1.9 -5.43 1.91 -5.43 1.91 -5.43 1.92 -5.43 1.92 -5.43 1.93 -5.42 1.93 -5.43 1.94 -5.42 1.94 -5.42 1.95 -5.42 1.95zm1275.83 -363.16l-1.23 15.99 0.82 -1.65 0.82 -1.64 0.82 -1.64 0.81 -1.65 0.82 -1.65 0.82 -1.65 0.82 -1.64 0.81 -1.65 0.82 -1.65 0.82 -1.65 0.82 -1.65 0.81 -1.65 0.82 -1.65 0.82 -1.65 0.82 -1.65 0.81 -1.65 0.82 -1.65 0.81 -1.65 0.82 -1.66 0.82 -1.65 0.81 -1.66 0.82 -1.65 0.82 -1.65 0.82 -1.65 0.82 -1.65 0.82 -1.65 0.82 -1.66 0.81 -1.65 0.82 -1.65 0.82 -1.65 0.82 -1.66 0.82 -1.65 0.82 -1.65 0.82 -1.65 0.81 -1.65 0.82 -1.65 0.82 -1.65 0.81 -1.65 0.82 -1.65 0.82 -1.65 0.82 -1.65 0.82 -1.65 0.82 -1.65 0.82 -1.65 0.82 -1.65 0.82 -1.65 0.82 -1.65 0.82 -1.65 0.82 -1.65 0.82 -1.65 0.82 -1.66 0.82 -1.65 0.83 -1.65 0.83 -1.65 0.82 -1.65 0.83 -1.65 0.83 -1.66 0.83 -1.65 0.83 -1.65 0.83 -1.66 0.83 -1.65 0.83 -1.65 0.83 -1.66 0.84 -1.65 0.38 0 0.38 0 0.38 0 0.38 0 0.38 0 0.38 0 0.38 0 0.38 0 0.82 1.65 0.82 1.66 0.82 1.65 0.82 1.65 0.82 1.66 0.81 1.65 0.82 1.66 0.82 1.65 0.82 1.66 0.81 1.65 0.82 1.65 0.82 1.66 0.82 1.66 0.82 1.65 0.82 1.66 0.81 1.65 0.82 1.66 0.82 1.65 0.82 1.66 0.82 1.66 0.81 1.66 0.82 1.66 0.82 1.66 0.82 1.66 0.82 1.65 0.81 1.66 0.82 1.66 0.82 1.66 0.82 1.66 0.81 1.66 0.82 1.66 0.81 1.66 0.82 1.66 0.82 1.66 0.82 1.66 0.82 1.66 0.81 1.66 0.82 1.66 0.82 1.66 0.82 1.66 0.82 1.66 0.82 1.66 0.81 1.66 0.82 1.66 0.82 1.67 0.82 1.66 0.82 1.67 0.82 1.66 0.82 1.66 0.82 1.67 0.82 1.67 0.82 1.67 0.82 1.66 0.83 1.67 0.82 1.66 0.83 1.67 0.83 1.67 0.83 1.67 0.83 1.67 0.83 1.67 0.83 1.67 0.83 1.67 0.83 1.67 0.84 1.67 28.27 -15.83 -1.05 -2.09 -1.04 -2.09 -1.04 -2.09 -1.04 -2.09 -1.04 -2.08 -1.03 -2.09 -1.04 -2.09 -1.03 -2.08 -1.03 -2.08 -1.03 -2.09 -1.03 -2.08 -1.03 -2.09 -1.03 -2.08 -1.03 -2.08 -1.03 -2.09 -1.03 -2.08 -1.03 -2.08 -1.02 -2.08 -1.02 -2.08 -1.03 -2.08 -1.02 -2.08 -1.02 -2.08 -1.03 -2.08 -1.02 -2.08 -1.02 -2.08 -1.02 -2.08 -1.03 -2.08 -1.02 -2.08 -1.02 -2.07 -1.02 -2.08 -1.02 -2.07 -1.02 -2.08 -1.02 -2.08 -1.03 -2.07 -1.02 -2.07 -1.02 -2.08 -1.02 -2.07 -1.02 -2.07 -1.02 -2.08 -1.02 -2.07 -1.02 -2.07 -1.02 -2.07 -1.02 -2.07 -1.02 -2.07 -1.02 -2.07 -1.02 -2.07 -1.02 -2.07 -1.02 -2.07 -1.03 -2.07 -1.02 -2.07 -1.02 -2.07 -1.02 -2.07 -1.02 -2.07 -1.02 -2.07 -1.02 -2.06 -1.02 -2.07 -1.02 -2.07 -1.02 -2.07 -1.02 -2.06 -1.02 -2.07 -1.02 -2.07 -1.02 -2.07 -1.02 -2.06 -1.02 -2.07 -0.48 0 -0.47 0 -0.47 0 -0.48 0 -0.47 0 -0.47 0 -0.48 0 -0.47 0 -1.05 2.07 -1.04 2.06 -1.04 2.07 -1.04 2.07 -1.04 2.06 -1.04 2.07 -1.04 2.07 -1.03 2.06 -1.03 2.06 -1.03 2.07 -1.03 2.07 -1.03 2.07 -1.03 2.06 -1.03 2.07 -1.02 2.06 -1.03 2.06 -1.03 2.07 -1.03 2.06 -1.03 2.06 -1.02 2.07 -1.02 2.06 -1.03 2.06 -1.02 2.07 -1.02 2.06 -1.02 2.06 -1.02 2.06 -1.03 2.07 -1.02 2.06 -1.02 2.06 -1.02 2.07 -1.02 2.06 -1.02 2.06 -1.02 2.07 -1.03 2.07 -1.02 2.06 -1.02 2.07 -1.02 2.07 -1.02 2.06 -1.02 2.07 -1.02 2.06 -1.02 2.06 -1.03 2.07 -1.02 2.07 -1.02 2.07 -1.02 2.06 -1.02 2.07 -1.02 2.06 -1.02 2.06 -1.02 2.07 -1.02 2.07 -1.02 2.06 -1.02 2.07 -1.02 2.06 -1.02 2.06 -1.02 2.06 -1.02 2.07 -1.03 2.06 -1.02 2.05 -1.02 2.06 -1.02 2.06 -1.02 2.06 -1.02 2.06 -1.02 2.05 -1.02 2.05zm821.9 -313.42l-165.61 76.67 0 6.73 0 6.72 0 6.72 0 6.72 0 6.72 0 6.72 0 6.72 0 6.72 0 6.72 0 6.72 0 6.72 0 6.72 0 6.72 0 6.72 0 16.71 0 6.72 0 6.72 0 6.72 0 6.72 0 6.72 0 6.72 0 6.72 0 6.72 0 6.72 0 6.72 0 6.72 0 6.72 0 6.72 0 6.72 0 6.72 0 6.72 0 6.72 0 6.71 0 6.71 0 6.71 0 6.72 0 6.71 0 6.71 0 6.72 0 6.72 0 6.71 0 6.72 0 6.71 0 6.72 0 6.72 0 6.72 0 6.72 0 6.72 0 6.72 0 6.72 0 6.72 0 6.72 0 6.72 0 6.72 0 6.72 0 6.72 0 6.72 0 6.72 0 6.72 0 6.72 0 6.72 0 6.72 0 6.72 0 6.72 10.96 2.68 10.95 2.71 10.95 2.76 10.96 2.79 10.95 2.82 10.95 2.86 10.95 2.89 10.96 2.92 10.95 2.97 10.95 3 10.96 3.03 10.95 3.07 10.95 3.11 10.96 3.14 10.95 3.18 10.95 3.21 10.95 3.25 10.96 3.28 10.95 3.32 10.95 3.35 10.95 3.39 10.96 3.42 10.95 3.46 10.95 3.5 10.96 3.53 10.95 3.57 10.95 3.61 10.96 3.64 10.95 3.68 10.95 3.71 10.96 3.75 10.95 3.79 253.25 56.65 -13.69 -4.73 -13.69 -4.69 -13.69 -4.64 -13.69 -4.6 -13.69 -4.55 -13.69 -4.51 -13.69 -4.46 -13.7 -4.42 -13.69 -4.37 -13.69 -4.33 -13.69 -4.28 -13.69 -4.24 -13.69 -4.19 -13.7 -4.15 -13.69 -4.1 -13.69 -4.06 -13.69 -4.02 -13.69 -3.96 -13.69 -3.93 -13.69 -3.88 -13.69 -3.84 -13.7 -3.79 -13.69 -3.75 -13.69 -3.71 -13.69 -3.66 -13.69 -3.61 -13.69 -3.58 -13.69 -3.53 -13.69 -3.49 -13.69 -3.44 -13.7 -3.39 -13.69 -3.36 0 -8.39 0 -8.4 0 -8.39 0 -8.4 0 -8.39 0 -8.4 0 -8.39 0 -8.4 0 -8.39 0 -8.4 0 -8.39 0 -8.4 0 -8.39 0 -8.4 0 -8.4 0 -8.39 0 -8.4 0 -8.39 0 -8.39 0 -8.39 0 -8.4 0 -8.39 0 -8.39 5.2 -9.7 -2.94 8.25 5.02 0.47 5.02 0.47 5.02 0.48 5.02 0.48 5.03 0.48 5.02 0.48 5.03 0.48 5.02 0.49 5.02 0.49 5.02 0.49 5.03 0.49 5.02 0.5 5.03 0.49 5.02 0.51 5.03 0.5 5.03 0.5 5.03 0.51 5.03 0.51 5.03 0.51 5.03 0.51 5.04 0.52 5.04 0.51 5.03 0.53 5.04 0.53 5.04 0.53 5.04 0.53 240.27 -6.88 -6.3 -0.66 -6.29 -0.66 -6.3 -0.66 -6.29 -0.65 -6.3 -0.65 -6.29 -0.65 -6.29 -0.64 -6.29 -0.64 -6.29 -0.64 -6.29 -0.64 -6.29 -0.63 -6.29 -0.63 -6.28 -0.62 -6.28 -0.62 -6.28 -0.62 -6.29 -0.62 -6.28 -0.62 -6.28 -0.61 -6.28 -0.61 -6.28 -0.61 -6.28 -0.61 -6.28 -0.6 -6.28 -0.6 -6.28 -0.6 -6.28 -0.59 -6.28 -0.59 -6.28 -0.59 -6.28 -0.59 -6.27 -0.59 -6.28 -0.58 -6.28 -0.58 -6.28 -0.58 -166.99 1.29 -5.2 5.41 0 -8.39 0 -8.39 0 -8.39 0 -8.39 0 -8.39 0 -8.39 0 -8.39 0 -8.39 0 -8.4 0 -8.39 0 -8.4 0 -8.39 0 -8.4 0 -8.39 0 -8.4 0 -8.39 0 -8.4 0 -8.39 0 -18.39 0 -8.4 0 -8.4 0 -8.39 5.2 -10.27 -0.9 7.61 6.43 -0.65 6.44 -0.66 6.43 -0.66 6.44 9.33 6.44 -0.67 6.44 -0.67 6.44 -0.68 6.44 -0.68 6.44 -0.69 6.44 -0.69 6.45 -0.7 6.44 -0.7 6.44 -0.71 6.44 -0.7 6.45 -0.72 6.44 -0.71 6.45 -0.72 6.45 -0.73 6.45 -0.73 6.44 -0.73 6.45 -0.75 6.45 -0.74 6.45 -0.75 6.44 -0.75 6.45 -0.76 6.45 -0.77 6.44 -0.77 251.59 -63.49 -8.06 0.96 -8.06 0.95 -8.06 0.95 -8.06 0.94 -8.06 0.94 -8.06 0.93 -8.06 0.93 -8.05 0.92 -8.06 0.91 -8.05 0.91 -8.06 0.9 -8.05 0.9 -8.06 0.89 -8.05 0.89 -8.05 0.88 -8.05 0.88 -8.05 0.87 -8.05 0.87 -8.05 0.85 -8.05 0.86 -8.05 0.85 -8.05 0.84 -8.05 0.84 -8.04 0.83 -8.04 0.83 -8.04 0.82 -8.04 0.81 -8.04 0.81 -8.04 0.8 -8.04 0.8 -8.04 0.79 -8.04 0.79 -166.99 31.81 -5.2 7.17 0 -8.39 0 -8.4 0 -8.4 0 -8.4 0 -8.4 0 -8.4 0 -8.4 0 -8.4 0 -8.4 0 -8.4 0 -8.4 0 -8.4 0 -8.4 0 -8.4 0 -8.4 0 -8.4 0 -8.4zm-502.18 452.23l2.25 1.08 2.29 1.07 2.34 1.06 2.39 1.04 2.45 1.03 2.51 1.03 2.57 1.01 2.63 1 2.7 0.99 2.77 0.98 2.84 0.97 2.91 0.96 3 0.94 3.07 0.93 3.16 0.92 3.26 0.91 3.34 0.89 3.43 0.87 3.53 0.87 3.64 0.85 3.73 0.83 3.84 0.82 149.3 26.23 4.25 -10.13 -3.85 -1.16 -3.74 -1.18 -3.64 -1.19 -3.55 -1.21 -3.46 -1.22 -3.37 -1.24 -3.29 -1.25 -3.21 -1.27 -3.13 -1.28 -3.06 -1.29 -2.99 -1.31 -2.93 -1.32 -2.86 -1.33 -2.81 -1.34 0 -2.54 0 -2.53 0 -2.53 0 -2.54 -90.83 -7.33 0 -2.53 0 -2.53 0 -2.53 0 -2.53 0 -2.53 0 -2.54 0 -2.53 0 -2.53 0 -2.53 0 -2.53 0 -2.53 0 -2.53 0 -2.53 0 -2.53 0 -2.53 0 -2.53 0 -2.53 0 -2.53 0 -2.53 0 -2.53 0 -2.54 5.2 -9.61 86.45 9.44 4.7 0.03 4.57 -0.08 4.45 -0.19 4.32 -0.3 4.18 -0.42 4.05 -0.55 3.9 -0.67 3.76 -0.79 3.62 -0.91 3.47 -1.03 3.32 -1.18 3.17 -1.3 3.01 -1.44 2.85 -1.56 2.68 -1.71 2.52 -1.84 2.35 -1.99 2.18 -2.14 2.01 -2.28 1.83 -2.43 1.65 -2.57 1.47 -2.73 1.28 -2.88 1.1 -3.04 0.9 -3.19 0.71 -3.35 0.51 -3.52 0.3 -3.68 0.1 -3.85 0 -4.81 0 -4.81 0 -4.81 0 -4.81 0 -4.81 0 -4.82 0 -4.81 0 -4.81 0 -4.81 0 -4.81 0 -4.81 0 -4.81 0 -4.81 0 -4.81 0 -4.81 0 -4.81 0 -4.82 0 -4.81 0 -4.81 0 -4.81 0 -4.81 0 -4.81 0 -4.81 0 -4.81 0 -4.81 0 -4.81 0 -4.81 0 -4.81 0 -4.81 0 -4.81 0 -4.81 0 -4.81 0 -4.81 0 -14.81 0 -4.81 0 -4.81 0 -4.82 0 -4.81 0 -4.82 0 -4.81 0 -4.82 0 -4.81 0 -4.82 0 -4.81 0 -4.82 0 -4.81 0 -4.82 0 -4.81 0 -4.82 0 -4.82 0 -4.81 0 -4.82 0 -4.82 0 -4.81 0 -4.82 0 -4.81 0 -4.82 0 -4.81 0 -4.82 0 -4.81 0 -4.81 0 -4.81 0 -4.81 0 -4.81 -114.79 70.43 0 3.85 0 3.85 0 3.85 0 3.85 0 3.86 0 3.85 0 3.85 0 3.85 0 3.86 0 3.85 0 3.86 0 3.85 0 3.86 0 3.85 0 3.86 0 3.85 0 3.85 0 3.86 0 3.86 0 13.85 0 3.85 0 3.85 0 3.86 0 3.85 0 3.86 0 3.85 0 3.85 0 3.86 0 3.85 0 3.85 0 3.85 0 3.85 0 3.85 0 3.85 0 3.85 0 3.85 0 3.85 0 3.86 0 3.85 0 3.85 0 3.85 0 3.85 0 3.85 0 3.85 0 3.85 0 3.85 0 3.85 0 3.85 0 3.85 0 3.85 0 3.85 0 3.85 0 3.85 0 3.85 0 3.85 0 3.85 0 3.85 0 3.85 0 3.85 0 3.85 0 3.85 0 3.85 0 3.85 0 3.85 -0.08 3.08 -0.25 2.95 -0.41 2.81 -0.57 2.68 -0.71 2.55 -0.88 2.43 -1.02 2.31 -1.18 2.18 -1.32 2.06 -1.46 1.94 -1.61 1.82 -1.75 1.7 -1.88 1.59 -2.02 1.48 -2.15 1.36 -2.28 1.26 -2.41 1.15 -2.53 1.04 -2.66 0.93 -2.78 0.83 -2.89 0.73 -3.01 0.63 -3.12 0.53 -3.23 0.43 -3.35 0.34 -3.45 0.24 2.37 -7.91 -5.2 7.27 0 -2.53 0 -2.54 0 -2.53 0 -2.54 0 -2.54 -81.47 1.49 0 2.03 0 2.03 0 2.03 0 2.03 0 2.03 0 2.03 0 2.03 0 2.02 0 2.03 0 2.02 0 2.03 0 2.02 0 2.03 0 2.02 0 2.03 0 2.02 0 2.02 0 2.03 0 2.02 0 2.02 0 2.02 0 2.03 0 2.02 0 2.02 0 2.02 0 2.03 0 2.02 0 2.02 0 2.03 0 2.02 0 2.03 0 2.02zm-672.32 -265.45l4.15 0.17 4.01 0.24 3.87 0.31 3.73 0.39 3.59 0.47 3.46 0.55 3.31 0.63 3.18 0.71 3.04 0.8 2.9 0.89 2.77 0.98 2.64 1.08 2.5 1.17 2.37 1.28 2.23 1.37 -74.67 -48.87 -2.79 -1.72 -2.96 -1.59 -3.12 -1.47 -3.3 -1.34 -3.46 -1.23 -3.63 -1.12 -3.8 -1 -3.97 -0.9 -4.14 -0.79 -4.32 -0.69 -4.49 -0.59 -4.66 -0.48 -4.84 -0.4 -5.01 -0.3 -5.19 -0.21 -2.12 -0.08 -2.11 -0.08 -2.12 -0.08 -2.11 -0.08 -2.12 -0.08 -2.12 -0.08 -2.12 -0.08 -2.12 -0.08 -2.11 -0.08 -2.12 -0.07 -2.11 -0.08 -2.12 -0.08 -2.12 -0.08 -2.12 -0.08 -2.12 -0.08 -2.12 -0.08 -2.12 -0.08 -2.11 -0.08 -2.12 -0.08 -2.12 -0.08 -2.12 -0.08 -2.12 -0.08 -2.12 -0.08 -2.12 -0.08 -2.11 -0.08 -2.12 -0.09 -2.12 -0.09 -2.12 -0.09 -2.12 -0.09 -2.12 -0.09 -2.12 -0.09 -2.11 -0.09 0 2.06 0 2.06 0 2.06 0 2.06 0 2.06 0 2.06 0 2.06 0 2.06 0 2.06 0 2.07 0 2.06 0 2.06 0 2.06 0 2.06 0 2.06 0 2.06 0 2.06 0 2.06 0 2.06 0 2.06 0 2.06 0 2.06 0 2.06 0 2.05 0 2.06 0 2.05 0 2.06 0 2.06 0 2.05 0 2.06 0 2.05 0 2.05 0 2.05 0 2.06 0 2.05 0 2.05 0 2.06 0 2.06 0 2.05 0 2.06 0 2.06 0 2.06 0 2.05 0 2.06 0 2.05 0 2.06 0 2.06 0 2.06 0 2.06 0 2.05 0 2.06 0 2.05 0 2.06 0 2.06 0 2.06 0 2.05 0 2.06 0 2.05 0 2.05 0 2.05 0 2.06 0 2.05 0 2.05 0 2.06 100.15 25.81 0 -1.64 0 -1.64 0 -1.64 0 -1.65 0 -1.64 0 -1.64 0 -1.65 0 -1.65 0 -1.64 0 -1.65 0 -1.64 0 -1.65 0 -1.65 0 -1.65 0 -1.64 0 -1.65 0 -1.65 0 -1.64 0 -1.65 0 -1.64 0 -1.65 0 -1.65 0 -1.64 0 -1.65 0 -1.64 0 -1.65 0 -1.64 0 -1.64 0 -1.65 0 -1.64 0 -1.64 0 -1.64 0 -1.65 0 -1.64 0 -1.64 0 -1.65 0 -1.64 0 -1.64 0 -1.65 0 -1.65 0 -1.64 0 -1.65 0 -1.65 0 -1.65 0 -1.65 0 -1.64 0 -1.65 0 -1.65 0 -1.65 0 -1.65 0 -1.65 0 -1.65 0 -1.65 0 -1.65 0 -1.65 0 -1.65 0 -1.65 0 -1.65 0 -1.65 0 -1.65 0 -1.65 0 -1.65 0 -1.65 0 -1.65 1.7 0.07 1.7 0.07 1.69 0.07 1.69 0.07 1.69 0.07 1.69 0.07 1.69 0.07 1.7 0.07 1.69 0.07 1.7 0.07 1.69 0.07 1.7 0.06 1.69 0.06 1.7 0.07 1.69 0.06 1.69 0.06 1.7 0.07 1.69 0.06 1.7 0.07 1.69 0.06 1.7 0.06 1.69 0.06 1.7 0.06 1.69 0.06 1.7 0.06 1.69 0.06 1.69 0.06 1.69 0.06 1.7 0.06 1.69 0.06 1.7 0.06 1.7 0.06z"/>
   <path class="fil7" d="M9.58 1257.18c57.82,-20.85 115.89,-40.78 173.96,-59.5 0,-50.06 0,-100.05 0,-150.12 0,-50.06 0,-100.21 0,-150.27 31.45,46.57 62.9,91.15 94.84,133 30.95,40.55 63.4,78.29 95.1,114.74 64.66,-14.99 129.59,-28.76 194.5,-41.24 -36.26,-37.81 -73.03,-77.18 -108.54,-119.15 -36.52,-43.17 -72.28,-89.48 -108.29,-137.79 33.98,-45.12 67.48,-88.44 101.94,-129.04 33.49,-39.45 67.97,-76.62 101.95,-112.53 -58.83,-7.61 -117.42,-16.05 -176,-25.11 -32.71,38.96 -65.97,79.33 -97.89,122.42 -33.01,44.56 -65.17,92.37 -97.63,142.13 0,-50.07 0,-100.21 0,-150.19 0,-50.07 0,-100.21 0,-150.35 -58.07,-12.55 -116.14,-25.94 -173.96,-40.02 0,125.54 0,251.08 0,376.55 0,125.46 0,251 0,376.47zm768.9 -412.31c0,-21.91 0,-43.9 0,-65.81 0,-21.92 0,-43.9 0,-65.89 22.57,0.99 45.14,1.75 67.71,2.59 56.3,1.83 82.42,18.26 82.42,65.13 0,41.85 -22.32,62.16 -86.22,63 -21.3,0.3 -42.6,0.61 -63.91,0.99zm-174.22 252.76c58.07,-9.36 116.15,-17.88 174.22,-25.03 0,-24.57 0,-49.23 0,-73.8 0,-24.58 0,-49.15 0,-73.8 29.67,-1.6 59.34,-2.89 89.01,-4.26 78.11,-2.97 138.33,-16.89 179.29,-40.93 40.69,-23.89 62.38,-58.36 62.38,-103.93 0,-42.23 -20.47,-75.16 -61.11,-98.61 -41.01,-23.65 -102.45,-38.73 -185.38,-43.45 -86.22,-6.24 -172.45,-13.85 -258.41,-22.83 0,81.18 0,162.29 0,243.4 0,81.03 0,162.14 0,243.25zm746.83 -335.77c1.27,0 2.54,0 3.8,0 10.9,22.06 21.81,44.13 32.71,66.27 10.9,22.14 21.81,44.36 32.97,66.65 -45.14,-0.38 -90.28,-0.61 -135.17,-0.76 10.9,-21.91 21.8,-43.99 32.71,-66.04 10.89,-22 21.81,-44.05 32.97,-66.12zm-295.43 287.83c52.49,-2.21 104.98,-3.65 157.48,-4.79 12.93,-26.25 25.87,-52.73 38.8,-79.05 67.96,0 135.93,0.69 203.89,2.13 13.69,27.09 27.64,54.25 41.59,81.56 59.09,3.27 118.43,7.31 177.77,12.18 -36.01,-73.27 -72.01,-145.01 -108.03,-214.71 -35.49,-68.69 -72.02,-136.12 -107.78,-202.92 -62.13,1.29 -124.26,2.05 -186.14,2.44 -36.26,66.27 -72.65,132.55 -108.79,199.19 -36.39,67.11 -72.53,135.13 -108.79,203.99zm767.88 33.25c68.98,10.04 120.59,3.64 154.18,-17.57 33.87,-21.39 50.72,-57.67 50.72,-103.25 0,-59.95 0,-119.91 0,-179.87 0,-59.96 0,-119.99 0,-179.94 -58.58,7.23 -116.91,13.85 -175.23,19.48 0,51.36 0,102.79 0,154.15 0,51.36 0,102.72 0,154.07 0,41.92 -35.25,55.16 -89.77,50.83 -29.67,-2.21 -58.33,-8.6 -76.84,-14.3 0,27.08 0,54.02 0,81.03 29.67,14.38 68.47,26.86 136.94,35.38zm283.77 44.97c146.07,35.53 292.14,78.52 438.21,129.27 0,-50.37 0,-100.81 0,-151.26 -88.76,-21.08 -177.52,-40.25 -266.02,-57.6 0,-42.84 0,-85.67 0,-128.58 66.95,6.16 133.9,12.7 201.1,19.78 0,-46.72 0,-93.51 0,-140.23 -67.2,0.38 -134.15,0.76 -201.1,0.99 0,-38.65 0,-77.23 0,-115.88 85.71,-8.37 171.68,-17.65 257.65,-27.92 0,-50.07 0,-100.21 0,-150.35 -143.28,33.25 -286.56,61.25 -429.84,84.45 0,89.63 0,179.18 0,268.73 0,89.48 0,179.03 0,268.58z"/>
   <g style="clip-path:url(#id0)">
    <g>
     <path id="_1" class="fil8" style="mask:url(#id1)" d="M1381.09 32.94c436.24,0 789.87,326.35 789.87,728.93 0,402.58 -353.64,728.93 -789.87,728.93 -436.24,0 -789.87,-326.35 -789.87,-728.93 0,-402.58 353.64,-728.93 789.87,-728.93z"/>
     <path class="fil8" style="mask:url(#id3)" d="M2469.36 1816.36c350.1,0 633.91,-261.91 633.91,-585 0,-323.09 -283.81,-585 -633.91,-585 -350.1,0 -633.91,261.91 -633.91,585 0,323.09 283.81,585 633.91,585z"/>
    </g>
   </g>
   <path class="fil9" d="M9.58 1257.18c57.82,-20.85 115.89,-40.78 173.96,-59.5 0,-50.06 0,-100.05 0,-150.12 0,-50.06 0,-100.21 0,-150.27 31.45,46.57 62.9,91.15 94.84,133 30.95,40.55 63.4,78.29 95.1,114.74 64.66,-14.99 129.59,-28.76 194.5,-41.24 -36.26,-37.81 -73.03,-77.18 -108.54,-119.15 -36.52,-43.17 -72.28,-89.48 -108.29,-137.79 33.98,-45.12 67.48,-88.44 101.94,-129.04 33.49,-39.45 67.97,-76.62 101.95,-112.53 -58.83,-7.61 -117.42,-16.05 -176,-25.11 -32.71,38.96 -65.97,79.33 -97.89,122.42 -33.01,44.56 -65.17,92.37 -97.63,142.13 0,-50.07 0,-100.21 0,-150.19 0,-50.07 0,-100.21 0,-150.35 -58.07,-12.55 -116.14,-25.94 -173.96,-40.02 0,125.54 0,251.08 0,376.55 0,125.46 0,251 0,376.47zm768.9 -412.31c0,-21.91 0,-43.9 0,-65.81 0,-21.92 0,-43.9 0,-65.89 22.57,0.99 45.14,1.75 67.71,2.59 56.3,1.83 82.42,18.26 82.42,65.13 0,41.85 -22.32,62.16 -86.22,63 -21.3,0.3 -42.6,0.61 -63.91,0.99zm-174.22 252.76c58.07,-9.36 116.15,-17.88 174.22,-25.03 0,-24.57 0,-49.23 0,-73.8 0,-24.58 0,-49.15 0,-73.8 29.67,-1.6 59.34,-2.89 89.01,-4.26 78.11,-2.97 138.33,-16.89 179.29,-40.93 40.69,-23.89 62.38,-58.36 62.38,-103.93 0,-42.23 -20.47,-75.16 -61.11,-98.61 -41.01,-23.65 -102.45,-38.73 -185.38,-43.45 -86.22,-6.24 -172.45,-13.85 -258.41,-22.83 0,81.18 0,162.29 0,243.4 0,81.03 0,162.14 0,243.25zm746.83 -335.77c1.27,0 2.54,0 3.8,0 10.9,22.06 21.81,44.13 32.71,66.27 10.9,22.14 21.81,44.36 32.97,66.65 -45.14,-0.38 -90.28,-0.61 -135.17,-0.76 10.9,-21.91 21.8,-43.99 32.71,-66.04 10.89,-22 21.81,-44.05 32.97,-66.12zm-295.43 287.83c52.49,-2.21 104.98,-3.65 157.48,-4.79 12.93,-26.25 25.87,-52.73 38.8,-79.05 67.96,0 135.93,0.69 203.89,2.13 13.69,27.09 27.64,54.25 41.59,81.56 59.09,3.27 118.43,7.31 177.77,12.18 -36.01,-73.27 -72.01,-145.01 -108.03,-214.71 -35.49,-68.69 -72.02,-136.12 -107.78,-202.92 -62.13,1.29 -124.26,2.05 -186.14,2.44 -36.26,66.27 -72.65,132.55 -108.79,199.19 -36.39,67.11 -72.53,135.13 -108.79,203.99zm767.88 33.25c68.98,10.04 120.59,3.64 154.18,-17.57 33.87,-21.39 50.72,-57.67 50.72,-103.25 0,-59.95 0,-119.91 0,-179.87 0,-59.96 0,-119.99 0,-179.94 -58.58,7.23 -116.91,13.85 -175.23,19.48 0,51.36 0,102.79 0,154.15 0,51.36 0,102.72 0,154.07 0,41.92 -35.25,55.16 -89.77,50.83 -29.67,-2.21 -58.33,-8.6 -76.84,-14.3 0,27.08 0,54.02 0,81.03 29.67,14.38 68.47,26.86 136.94,35.38zm283.77 44.97c146.07,35.53 292.14,78.52 438.21,129.27 0,-50.37 0,-100.81 0,-151.26 -88.76,-21.08 -177.52,-40.25 -266.02,-57.6 0,-42.84 0,-85.67 0,-128.58 66.95,6.16 133.9,12.7 201.1,19.78 0,-46.72 0,-93.51 0,-140.23 -67.2,0.38 -134.15,0.76 -201.1,0.99 0,-38.65 0,-77.23 0,-115.88 85.71,-8.37 171.68,-17.65 257.65,-27.92 0,-50.07 0,-100.21 0,-150.35 -143.28,33.25 -286.56,61.25 -429.84,84.45 0,89.63 0,179.18 0,268.73 0,89.48 0,179.03 0,268.58z"/>
   <path class="fil10" d="M19.16 1243.6c25.3,-9.06 50.08,-17.75 74.25,-26.02 26.47,-9.07 53.35,-18.03 80.56,-26.85l0 -293.43 17.51 -5.35c15.92,23.57 31.64,46.36 47.08,68.08 15.67,22.03 31.47,43.57 47.42,64.47 15.31,20.06 31.1,39.55 47.01,58.57 15.07,18.02 29.64,34.91 43.93,51.36 30.71,-7.08 61.38,-13.87 91.92,-20.34 26.69,-5.66 53.41,-11.12 80.14,-16.35 -13.95,-14.65 -28.13,-29.75 -42.59,-45.52 -18.47,-20.15 -36.67,-40.63 -54.24,-61.4 -18.16,-21.47 -36.34,-43.97 -54.56,-67.27 -18.16,-23.21 -36.15,-46.92 -54.1,-71.01l-4.28 -5.73 4.32 -5.72c17.06,-22.64 33.99,-44.84 50.91,-66.36 16.9,-21.52 33.97,-42.59 51.38,-63.09 16.89,-19.89 33.96,-39.13 51,-57.85 12.21,-13.4 25.2,-27.34 38.48,-41.46 -23.9,-3.16 -47.1,-6.36 -69.69,-9.59 -26.39,-3.77 -54.02,-7.91 -82.67,-12.31 -15.32,18.27 -30.68,36.77 -45.68,55.4 -16.36,20.31 -32.6,41.12 -48.42,62.46 -16.31,22.03 -32.55,45.05 -48.79,68.81 -16.3,23.86 -32.41,48.17 -48.5,72.83l-17.59 -5.21 0 -292.82c-25.8,-5.6 -52.11,-11.51 -78.85,-17.66 -24.94,-5.74 -50.27,-11.72 -75.96,-17.94l0 727.3zm80.38 -7.9c-29.78,10.18 -58.68,20.36 -86.74,30.47l-12.8 4.61 0 -778.78 11.83 2.88c28.59,6.96 57.81,13.88 87.56,20.73 28.11,6.47 56.85,12.89 86.18,19.22l7.56 1.63 0 276.26c10.42,-15.77 20.8,-31.27 31.14,-46.4 16.2,-23.7 32.56,-46.89 49.25,-69.42 16.1,-21.72 32.46,-42.7 48.87,-63.07 16.64,-20.66 33.12,-40.47 49.35,-59.81l3.44 -4.12 5.34 0.83c28.01,4.32 57.2,8.68 87.8,13.06 30.24,4.32 59.61,8.35 87.94,12.01l18.59 2.4 -12.87 13.62c-16.23,17.17 -33.04,35.11 -51.01,54.83 -17.03,18.7 -33.98,37.79 -50.56,57.33 -17.05,20.08 -34,41 -50.93,62.57 -15.5,19.71 -30.9,39.86 -46.37,60.34 16.6,22.21 33.1,43.91 49.53,64.9 17.77,22.72 35.76,44.98 54.1,66.66 17.93,21.2 35.89,41.43 53.73,60.89 17.66,19.27 35.99,38.63 54.41,57.82l12.17 12.69 -17.26 3.32c-32.31,6.2 -64.66,12.75 -96.98,19.6 -32.58,6.9 -65,14.11 -97.19,21.56l-5.57 1.28 -3.79 -4.35c-16.19,-18.62 -32.49,-37.45 -47.94,-55.93 -15.97,-19.09 -31.91,-38.78 -47.53,-59.25 -15.97,-20.93 -31.91,-42.65 -47.8,-65 -10.09,-14.18 -20.03,-28.43 -29.87,-42.75l0 276.27 -6.66 2.15c-28.56,9.21 -57.57,18.86 -86.92,28.92zm669.35 -390.82l0 -141.68 9.99 0.44c17.27,0.75 34.04,1.37 50.76,1.97l16.88 0.62c30.07,0.98 52.43,6.11 67.7,17.58 16.16,12.15 23.95,30.43 23.95,57.09 0,23.98 -6.68,42.01 -22.92,54.48 -15.23,11.69 -38.63,17.63 -72.77,18.06l-73.59 1.16 0 -9.72zm19.16 -65.81l0 56.1 54.21 -0.82c29.76,-0.38 49.49,-5.04 61.39,-14.17 10.88,-8.36 15.36,-21.41 15.36,-39.28 0,-20.21 -5.29,-33.59 -16.24,-41.82 -11.84,-8.89 -30.71,-12.92 -56.9,-13.77l-57.83 -2.16 0 55.93zm-174.23 307.37c25.87,-4.12 51.32,-8.02 76.18,-11.61 26.59,-3.84 52.92,-7.42 78.88,-10.68l0 -148.21 9.1 -0.48c23,-1.24 46.64,-2.32 70.27,-3.4l18.81 -0.86c38.39,-1.45 72.3,-5.58 101.62,-12.27 29.09,-6.64 53.58,-15.8 73.25,-27.35 19.14,-11.23 33.72,-24.89 43.38,-40.99 9.4,-15.66 14.26,-33.88 14.26,-54.71 0,-19.32 -4.63,-36.44 -13.84,-51.31 -9.35,-15.1 -23.53,-28.13 -42.44,-39.03 -19.88,-11.47 -45,-20.89 -75.47,-28.03 -30.12,-7.05 -65.31,-11.85 -105.67,-14.14l-0.15 0c-43.69,-3.16 -86.92,-6.63 -129.56,-10.39 -38.74,-3.42 -78.3,-7.23 -118.6,-11.37l0 464.85zm78.88 7.32c-29.65,4.28 -58.58,8.73 -86.97,13.31l-11.07 1.78 0 -508.46 10.55 1.1c41.93,4.37 84.89,8.52 128.85,12.39 43.56,3.85 86.67,7.31 129.26,10.39 41.52,2.38 77.77,7.32 108.83,14.6 32.2,7.54 59.04,17.67 80.63,30.12 21.73,12.54 38.15,27.73 49.19,45.54 11.14,17.99 16.75,38.45 16.75,61.34 0,24.32 -5.81,45.81 -17.03,64.52 -11.34,18.9 -28.18,34.77 -50.11,47.64 -21.39,12.56 -47.69,22.44 -78.71,29.52 -30.41,6.93 -65.48,11.22 -104.99,12.72l-18.81 0.86c-20.21,0.92 -40.43,1.86 -61.03,2.92l0 147.01 -8.42 1.04c-29.37,3.61 -58.33,7.53 -86.92,11.65zm658.37 -341.47l9.74 0 39.73 80.51c10.02,20.34 20.11,40.85 28.55,57.72l6.97 13.94 -83.21 -0.59 -82.86 -0.36 55.94 -112.78 19.28 -38.43 5.87 0zm27.95 80.08l-26.11 -52.9c-17.45,34.99 -34.79,70.04 -52.15,105.08l104.31 0.57 -26.05 -52.75zm-307.21 207.12c20.63,-0.8 41.41,-1.52 62.3,-2.13 24.17,-0.71 48.54,-1.33 73,-1.87l38.88 -79.21 5.93 0c31.56,0 65.58,0.19 102.02,0.56 34.12,0.35 68.17,0.89 102.06,1.61l5.75 0.12 2.59 5.11c12.44,24.61 21.55,42.4 31,60.9l8.05 15.73c28.33,1.58 56.43,3.33 84.22,5.24 24.1,1.65 47.97,3.42 71.57,5.29 -15.12,-30.67 -30.63,-61.82 -46.55,-93.49 -18.06,-35.92 -36.07,-71.28 -53.98,-105.95 -28.24,-54.66 -57.34,-108.89 -86.16,-162.6l-18.77 -35.04c-29.05,0.59 -58.21,1.07 -87.4,1.44 -29.1,0.37 -58.27,0.65 -87.41,0.84l-20.9 38.18c-26.54,48.46 -53.09,96.95 -85.15,156.07 -19.81,36.54 -37.81,70.03 -54.44,101.26 -14.67,27.53 -30.31,57.08 -46.59,87.95zm62.83 16.95c-25.99,0.77 -52.2,1.69 -78.63,2.8l-16.57 0.69 7.74 -14.69c17.19,-32.64 35.14,-66.56 54.39,-102.69 19.57,-36.75 37.87,-70.86 54.44,-101.41 24.54,-45.26 54.92,-100.73 85.23,-156.07l26.31 -48.07 5.64 -0.03c30.84,-0.18 61.83,-0.47 92.9,-0.87 30.9,-0.39 61.95,-0.91 93.09,-1.56l5.83 -0.13 24.3 45.32c28.77,53.58 57.8,107.67 86.33,162.89 18.09,35.02 36.12,70.41 54.06,106.09 15.33,30.5 31.13,62.27 47.31,95.1l0 -90.24 12.39 3.82c9.81,3.02 22.58,6.25 36.82,8.91 11.78,2.19 24.69,4.01 37.92,4.99 25.63,2.04 46.39,0.11 60.29,-7.02 12.26,-6.29 19.2,-17.33 19.2,-34.27l0 -316.89 8.68 -0.84c28.38,-2.74 57.56,-5.81 87.37,-9.13 28.33,-3.17 57.61,-6.65 87.59,-10.34l10.74 -1.33 0 370.64c0,24.43 -4.64,46.52 -13.94,65.45 -9.23,18.79 -22.99,34.35 -41.27,45.89 -18.14,11.46 -40.98,18.87 -68.39,21.99 -26.38,2.99 -57.08,2.06 -92.04,-3.01 -34.72,-4.31 -61.99,-9.66 -84.37,-15.75 -22.14,-6.03 -39.56,-12.82 -54.72,-20.11l7.89 16.05 -16.74 -1.37c-29.79,-2.45 -59.17,-4.66 -88.08,-6.64 -30.21,-2.06 -60.06,-3.92 -89.47,-5.54l-5.47 -0.3 -41.55 -81.39c-32.12,-0.66 -64.16,-1.16 -96.08,-1.49 -29.79,-0.3 -61.78,-0.47 -95.94,-0.48l-38.72 78.88 -5.82 0.13c-26.08,0.57 -52.27,1.21 -78.66,2zm690.22 17.04c33.41,4.87 62.57,5.79 87.36,2.97 24.53,-2.81 44.7,-9.26 60.38,-19.17 15.22,-9.61 26.66,-22.53 34.31,-38.1 7.95,-16.19 11.92,-35.44 11.92,-57.06l0 -348.98c-25.15,3.06 -50.79,6.09 -77.08,9.02 -25.81,2.87 -52.1,5.66 -79,8.29l0 299.57c0,24.98 -10.71,41.53 -29.68,51.25 -17.33,8.88 -41.49,11.41 -70.42,9.11 -13.68,-1.02 -27.31,-2.94 -39.9,-5.29 -9.64,-1.8 -18.65,-3.85 -26.61,-5.93l0 62.35c13.06,5.98 28.13,11.6 46.85,16.7 21.55,5.87 47.94,11.03 81.68,15.23l0.19 0.04zm292 46.95c70.81,17.34 141.57,36.42 212.22,57.25 68.95,20.33 137.91,42.36 206.83,66.09l0 -130.27c-41.73,-9.87 -83.35,-19.28 -124.77,-28.25 -44.57,-9.65 -89.11,-18.83 -133.5,-27.53l-7.75 -1.52 0 -146.92 10.44 0.97c34.26,3.15 67.82,6.34 100.52,9.55 30.29,2.96 60.34,6.01 90.14,9.13l0 -120.02 -1.21 0.01c-63.53,0.35 -126.88,0.72 -190.31,0.93l-9.58 0.03 0 -134.11 8.68 -0.85c42.08,-4.1 84.96,-8.52 128.61,-13.24 39.43,-4.27 79.55,-8.83 120.35,-13.68l0 -129.82c-68.01,15.64 -135.86,30.09 -203.5,43.36 -68.63,13.46 -137.71,25.86 -207.18,37.19l0 521.71zm206.84 75.58c-72.96,-21.5 -145.87,-41.11 -218.66,-58.81l-7.33 -1.79 0 -552.93 8.09 -1.3c71.08,-11.5 142.61,-24.31 214.59,-38.42 71.72,-14.08 143.29,-29.37 214.61,-45.92l11.71 -2.72 0 170.87 -8.45 1.01c-42.23,5.05 -85.29,9.94 -129.03,14.68 -39.43,4.26 -79.52,8.4 -120.16,12.39l0 97.66c60.06,-0.21 120.28,-0.56 180.66,-0.9l20.44 -0.12 0 160.44 -10.55 -1.11c-33.95,-3.57 -67.49,-6.98 -100.61,-10.24 -30.65,-3.01 -60.59,-5.86 -89.93,-8.58l0 110.25c42.03,8.29 84.1,16.99 126.13,26.08 44.3,9.59 88.51,19.62 132.52,30.07l7.37 1.75 0 172.27 -12.72 -4.42c-72.9,-25.32 -145.81,-48.73 -218.65,-70.2z"/>
   <path class="fil11 str0" d="M868.53 1222.12c-6.7,0 -12.9,-1.3 -18.62,-3.9 -5.72,-2.6 -10.72,-6.2 -14.95,-10.78 -4.24,-4.58 -7.55,-9.87 -9.91,-15.89 -2.37,-6.02 -3.55,-12.42 -3.55,-19.22 0,-7.34 1.32,-14.02 3.94,-20.04 2.62,-6.02 6.18,-11.24 10.67,-15.64 4.49,-4.4 9.57,-7.77 15.25,-10.14 5.68,-2.37 11.54,-3.56 17.6,-3.56 6.66,0 13.22,1.55 19.7,4.65 6.47,3.1 12.31,8.12 17.51,15.05l-18.33 9.85c-2.78,-3.15 -5.81,-5.47 -9.12,-6.95 -3.3,-1.48 -6.66,-2.21 -10.03,-2.21 -3.42,0 -6.72,0.71 -9.91,2.12 -3.19,1.41 -6.04,3.42 -8.55,6.02 -2.5,2.6 -4.49,5.7 -5.97,9.3 -1.48,3.6 -2.23,7.59 -2.23,11.97 0,4.01 0.71,7.77 2.1,11.28 1.39,3.51 3.31,6.56 5.77,9.18 2.46,2.62 5.31,4.67 8.55,6.16 3.24,1.48 6.7,2.23 10.4,2.23 2.1,0 4.19,-0.3 6.27,-0.87 2.07,-0.57 4.08,-1.41 6.04,-2.55 1.96,-1.14 3.81,-2.6 5.54,-4.38 1.73,-1.78 3.31,-3.88 4.72,-6.29l-12.86 0 0 -17.78 37.06 0c0.37,7.16 -0.59,13.88 -2.89,20.2 -2.3,6.31 -5.63,11.9 -9.96,16.73 -4.33,4.83 -9.41,8.62 -15.25,11.35 -5.84,2.74 -12.15,4.1 -18.94,4.1zm84.59 -97.51l23.11 0 34.74 95.74 -21.74 0 -5.47 -15.05 -38.16 0 -5.47 15.05 -21.74 0 34.74 -95.74zm0 60.18l23.11 0 -11.63 -31.73 -11.49 31.73zm66.06 35.56l18.6 -95.74 17.51 0 21.47 56.48 21.47 -56.48 17.51 0 18.6 95.74 -20.92 0 -9.98 -51.7 -19.56 51.7 -14.22 0 -19.56 -51.7 -9.99 51.7 -20.92 0zm128.83 0l0 -95.74 61 0 0 20.51 -40.48 0 0 13.68 31.18 0 0 20.51 -31.18 0 0 20.52 40.48 0 0 20.51 -61 0zm143.88 1.77c-5.38,0 -10.53,-0.84 -15.45,-2.57 -4.92,-1.71 -9.23,-4.17 -12.92,-7.39 -3.69,-3.21 -6.36,-7.04 -8,-11.51l19.28 -7.11c0.46,1.32 1.48,2.6 3.06,3.83 1.57,1.23 3.55,2.24 5.97,3.03 2.42,0.8 5.11,1.21 8.07,1.21 2.74,0 5.31,-0.41 7.73,-1.21 2.42,-0.8 4.38,-1.89 5.88,-3.31 1.51,-1.41 2.26,-3.05 2.26,-4.92 0,-1.91 -0.78,-3.51 -2.35,-4.76 -1.58,-1.25 -3.58,-2.26 -6.02,-3.01 -2.44,-0.75 -4.95,-1.3 -7.5,-1.66 -6.93,-1 -13.13,-2.67 -18.62,-4.97 -5.49,-2.31 -9.82,-5.47 -12.99,-9.53 -3.17,-4.06 -4.76,-9.21 -4.76,-15.45 0,-5.97 1.69,-11.22 5.06,-15.71 3.37,-4.49 7.84,-7.98 13.38,-10.49 5.54,-2.51 11.51,-3.76 17.94,-3.76 5.38,0 10.55,0.85 15.5,2.55 4.95,1.71 9.26,4.2 12.95,7.43 3.69,3.23 6.34,7.11 7.93,11.63l-19.28 6.97c-0.46,-1.32 -1.46,-2.6 -3.03,-3.81 -1.57,-1.21 -3.58,-2.19 -5.99,-2.96 -2.42,-0.78 -5.11,-1.16 -8.07,-1.16 -2.64,-0.05 -5.17,0.34 -7.59,1.16 -2.42,0.82 -4.4,1.94 -5.95,3.35 -1.55,1.41 -2.32,3.01 -2.32,4.79 0,2.46 0.73,4.29 2.19,5.49 1.46,1.21 3.4,2.07 5.79,2.57 2.39,0.5 5.01,0.96 7.89,1.37 6.56,0.96 12.61,2.67 18.12,5.13 5.52,2.46 9.94,5.74 13.27,9.85 3.33,4.1 4.99,9.09 4.99,14.98 0,5.97 -1.66,11.19 -5.01,15.68 -3.35,4.49 -7.79,8 -13.31,10.51 -5.52,2.51 -11.53,3.76 -18.05,3.76zm105.86 -97.51l20.51 0 0 95.74 -20.51 0 0 -41.03 -33.92 0 0 41.03 -20.51 0 0 -95.74 20.51 0 0 34.19 33.92 0 0 -34.19zm81.37 97.51c-6.47,0 -12.56,-1.28 -18.26,-3.87 -5.7,-2.58 -10.71,-6.13 -15.04,-10.69 -4.33,-4.56 -7.73,-9.85 -10.19,-15.84 -2.46,-5.99 -3.69,-12.4 -3.69,-19.24 0,-6.84 1.23,-13.27 3.69,-19.26 2.46,-5.99 5.86,-11.26 10.19,-15.82 4.33,-4.56 9.34,-8.14 15.04,-10.72 5.7,-2.57 11.79,-3.85 18.26,-3.85 6.52,0 12.63,1.28 18.33,3.85 5.7,2.58 10.71,6.16 15.04,10.72 4.33,4.56 7.73,9.82 10.17,15.82 2.44,6 3.65,12.42 3.65,19.26 0,6.84 -1.21,13.24 -3.65,19.24 -2.44,6 -5.83,11.28 -10.17,15.84 -4.33,4.56 -9.35,8.11 -15.04,10.69 -5.7,2.6 -11.81,3.87 -18.33,3.87zm0 -20.51c3.65,0 7.09,-0.78 10.3,-2.3 3.21,-1.53 6.04,-3.63 8.5,-6.29 2.46,-2.67 4.4,-5.74 5.79,-9.25 1.39,-3.51 2.07,-7.27 2.07,-11.28 0,-4.01 -0.68,-7.77 -2.07,-11.28 -1.39,-3.51 -3.33,-6.61 -5.79,-9.28 -2.46,-2.67 -5.29,-4.77 -8.5,-6.29 -3.21,-1.53 -6.66,-2.28 -10.3,-2.28 -3.65,0 -7.06,0.75 -10.28,2.28 -3.21,1.53 -6.06,3.62 -8.52,6.29 -2.46,2.67 -4.38,5.77 -5.77,9.28 -1.39,3.51 -2.1,7.27 -2.1,11.28 0,4.01 0.71,7.77 2.1,11.28 1.39,3.51 3.31,6.59 5.77,9.25 2.46,2.67 5.31,4.76 8.52,6.29 3.22,1.53 6.63,2.3 10.28,2.3zm78.5 18.74l-24.48 -95.74 21.2 0 14.77 57.99 14.77 -57.99 18.87 0 14.77 57.99 14.77 -57.99 21.2 0 -24.34 95.74 -23.11 0 -12.72 -49.65 -12.58 49.65 -23.11 0z"/>
   <path class="fil12" d="M403.05 530.75l87.56 0 47.93 -190.79 1.38 0 46.09 190.79 87.1 0 74.2 -309.69 -75.58 0 -43.32 194.94 -1.38 0 -48.85 -194.94 -70.05 0 -49.31 194.94 -1.84 0 -40.56 -194.94 -87.1 0 73.74 309.69zm347.35 0l217.98 0 0 -62.21 -132.26 0 0 -65.44 100 0 0 -60.83 -100 0 0 -58.99 128.12 0 0 -62.22 -213.84 0 0 309.69zm231.68 0l217.98 0 0 -62.21 -132.27 0 0 -65.44 100.01 0 0 -60.83 -100.01 0 0 -58.99 128.12 0 0 -62.22 -213.83 0 0 309.69zm231.68 0l86.64 0 0 -142.4 94.47 142.4 96.78 0 -107.84 -163.6 101.39 -146.09 -87.56 0 -97.24 142.4 0 -142.4 -86.64 0 0 309.69zm276.84 0l217.98 0 0 -62.21 -132.26 0 0 -65.44 100.01 0 0 -60.83 -100.01 0 0 -58.99 128.11 0 0 -62.22 -213.83 0 0 309.69zm231.68 0l73.74 0 0 -193.1 1.84 0 110.6 193.1 82.49 0 0 -309.69 -73.74 0 0 173.28 -1.38 0 -100 -173.28 -93.55 0 0 309.69zm377.77 -61.29l0 -187.11 28.57 0c42.4,0 66.83,18.9 66.83,84.8l0 15.67c0,64.98 -21.2,86.64 -64.52,86.64l-30.87 0zm-86.64 61.29l119.36 0c96.32,0 153.93,-47 153.93,-151.62l0 -10.6c0,-106.46 -57.61,-147.47 -154.39,-147.47l-118.9 0 0 309.69z"/>
   <g style="clip-path:url(#id5)">
    <g>
     <path id="_1_0" class="fil8" style="mask:url(#id6)" d="M1381.09 32.94c436.24,0 789.87,326.35 789.87,728.93 0,402.58 -353.64,728.93 -789.87,728.93 -436.24,0 -789.87,-326.35 -789.87,-728.93 0,-402.58 353.64,-728.93 789.87,-728.93z"/>
    </g>
   </g>
   <path class="fil9" d="M403.05 530.75l87.56 0 47.93 -190.79 1.38 0 46.09 190.79 87.1 0 74.2 -309.69 -75.58 0 -43.32 194.94 -1.38 0 -48.85 -194.94 -70.05 0 -49.31 194.94 -1.84 0 -40.56 -194.94 -87.1 0 73.74 309.69zm347.35 0l217.98 0 0 -62.21 -132.26 0 0 -65.44 100 0 0 -60.83 -100 0 0 -58.99 128.12 0 0 -62.22 -213.84 0 0 309.69zm231.68 0l217.98 0 0 -62.21 -132.27 0 0 -65.44 100.01 0 0 -60.83 -100.01 0 0 -58.99 128.12 0 0 -62.22 -213.83 0 0 309.69zm231.68 0l86.64 0 0 -142.4 94.47 142.4 96.78 0 -107.84 -163.6 101.39 -146.09 -87.56 0 -97.24 142.4 0 -142.4 -86.64 0 0 309.69zm276.84 0l217.98 0 0 -62.21 -132.26 0 0 -65.44 100.01 0 0 -60.83 -100.01 0 0 -58.99 128.11 0 0 -62.22 -213.83 0 0 309.69zm231.68 0l73.74 0 0 -193.1 1.84 0 110.6 193.1 82.49 0 0 -309.69 -73.74 0 0 173.28 -1.38 0 -100 -173.28 -93.55 0 0 309.69zm377.77 -61.29l0 -187.11 28.57 0c42.4,0 66.83,18.9 66.83,84.8l0 15.67c0,64.98 -21.2,86.64 -64.52,86.64l-30.87 0zm-86.64 61.29l119.36 0c96.32,0 153.93,-47 153.93,-151.62l0 -10.6c0,-106.46 -57.61,-147.47 -154.39,-147.47l-118.9 0 0 309.69z"/>
   <path class="fil13" d="M406.08 526.92l81.56 0 47.92 -190.79 7.37 0 46.09 190.79 81.09 0 72.36 -302.03 -67.68 0 -43.32 194.94 -7.42 0 -48.85 -194.94 -64.09 0 -49.31 194.94 -7.92 0 -40.56 -194.94 -79.15 0 71.91 302.03zm84.54 7.66l-90.59 0 -75.56 -317.36 95.05 0 38.65 185.74 46.98 -185.74 76.01 0 46.39 185.08 41.12 -185.08 299.4 0 0 69.88 -128.11 0 0 51.32 100 0 0 68.5 -100 0 0 57.78 132.26 0 0 69.88 -225.64 0 0 -294.1 -70.47 294.1 -93.11 0 -43.82 -181.44 -45.58 181.44 -2.98 0zm263.62 -7.66l210.31 0 0 -54.55 -132.26 0 0 -73.1 100 0 0 -53.17 -100 0 0 -66.65 128.11 0 0 -54.56 -206.17 0 0 302.03zm231.67 0l210.32 0 0 -54.55 -132.27 0 0 -73.1 100.01 0 0 -53.17 -100.01 0 0 -66.65 128.12 0 0 -54.56 -206.18 0 0 302.03zm214.16 7.66l-221.82 0 0 -317.36 221.5 0 0 69.88 -128.12 0 0 51.32 100.01 0 0 68.5 -100.01 0 0 57.78 132.27 0 0 69.88 -3.83 0zm17.53 -7.66l78.97 0 0 -138.57 7.02 -2.11 93.33 140.68 87.63 0 -105.36 -159.83 98.69 -142.2 -78.23 0 -96.09 140.73 -6.99 -2.16 0 -138.57 -78.97 0 0 302.03zm82.8 7.66l-90.47 0 0 -317.36 94.3 0 0 133.84 91.39 -133.84 312.65 0 0 69.88 -128.11 0 0 51.32 100 0 0 68.5 -100 0 0 57.78 132.26 0 0 69.88 -319.59 0 -88.59 -133.54 0 133.54 -3.83 0zm88.02 -167.37l98.34 149.19 0 -290.9 -98.34 141.71zm106.01 159.71l210.32 0 0 -54.55 -132.26 0 0 -73.1 100 0 0 -53.17 -100 0 0 -66.65 128.11 0 0 -54.56 -206.17 0 0 302.03zm231.68 0l66.07 0 0 -193.1 7.9 0 110.61 193.1 76.44 0 0 -302.03 -66.08 0 0 173.28 -7.41 0 -100 -173.28 -87.53 0 0 302.03zm69.9 7.66l-77.56 0 0 -317.36 99.58 0 95.36 165.23 0 -165.23 81.4 0 0 317.36 -88.54 0 -106.4 -185.76 0 185.76 -3.83 0zm300.2 -65.13l0 -190.94 32.4 0c22.28,0 39.94,5.08 52.18,18.99 12.03,13.67 18.47,35.69 18.47,69.64l0 15.67c0,33.39 -5.58,55.82 -16.85,70.06 -11.53,14.57 -28.65,20.41 -51.49,20.41l-34.71 0 0 -3.83zm7.66 -183.27l0 179.44 27.05 0c20.47,0 35.63,-5 45.51,-17.48 10.15,-12.82 15.18,-33.73 15.18,-65.32l0 -15.67c0,-31.95 -5.78,-52.33 -16.56,-64.58 -10.55,-11.99 -26.32,-16.38 -46.43,-16.38l-24.74 0zm-86.64 240.74l115.53 0c48.32,0 86.6,-11.99 112.32,-37.31 24.48,-24.11 37.77,-60.53 37.77,-110.48l0 -10.6c0,-52.04 -13.95,-87.99 -39.61,-110.8 -25.73,-22.88 -63.49,-32.84 -110.95,-32.84l-115.07 0 0 302.03zm115.53 7.66l-123.19 0 0 -317.36 122.73 0c49.32,0 88.78,10.56 116.03,34.79 27.33,24.3 42.19,62.12 42.19,116.52l0 10.6c0,52.11 -14.11,90.35 -40.08,115.93 -27.25,26.83 -67.34,39.52 -117.67,39.52z"/>
  </g>
 </g>
</svg>
